# xmcd CD database file
#
# Track frame offsets:
#	150
#	26017
#	47105
#	69690
#	96427
#	119575
#	139350
#	163780
#	183109
#	200950
#	226425
#
# Disc length: 3631 seconds
#
# Revision: 0
# Processed by: cddbd v1.4PL0 Copyright (c) Steve Scherf et al.
# Submitted via: CDex 1.51
#
DISCID=aa0e2d0b
DTITLE=George Pajon Jr - Fried Plantains
DYEAR=2003
DGENRE=Jazz
TTITLE0=Sunday Best
TTITLE1=Chipp'd Toof
TTITLE2=Smoke And Mirrors
TTITLE3=UHF
TTITLE4=Latin Vibe
TTITLE5=Horndoggin' (Sloppy Seconds)
TTITLE6=Rings
TTITLE7=Bigg Fizz
TTITLE8=The 3D Hustle
TTITLE9=Mustard
TTITLE10=Childhood
EXTD=YEAR: 2003
EXTT0=
EXTT1=
EXTT2=
EXTT3=
EXTT4=
EXTT5=
EXTT6=
EXTT7=
EXTT8=
EXTT9=
EXTT10=
PLAYORDER=
